<?xml version="1.0" encoding="UTF-8"?>
<svg xmlns="http://www.w3.org/2000/svg" width="1024" height="1024" viewBox="0 0 1024 1024">
  <rect x="64" y="64" width="896" height="896" rx="208" fill="#0B0D12"/>
  <g transform="translate(112 154) scale(1.084)">
    <path d="M119.5 41.8125 C117.79662476 42.04211426 117.79662476 42.04211426 116.05883789 42.27636719 C107.2249757 43.60555912 103.19888411 45.80111589 97 52 C96.38891147 57.83929035 96.0668552 61.52252073 99.25 66.5625 C104.7580682 71.44465136 108.84645346 71.32150771 116 71 C121.29906318 70.3352875 126.55223784 69.44626766 131.80541992 68.48852539 C160.14007824 64.15549892 190.74181025 66.71872535 218 75 C219.28003906 75.36996094 220.56007813 75.73992187 221.87890625 76.12109375 C230.65053413 78.80932329 238.41080809 82.64370091 246.41796875 87.109375 C249.9528234 89.15703751 249.9528234 89.15703751 254 90 C254 90.66 254 91.32 254 92 C257.88593586 95.10874869 261.54384348 97.77192174 266 100 C266 100.66 266 101.32 266 102 C266.66 102.66 267.32 103.32 268 104 C292.67367978 128.67367978 296.84837224 161.68221769 298 195 C302.28857103 197.14428552 306.16864716 197.70454711 310.87109375 198.42578125 C315.07119833 199.19658696 318.9972332 200.53231884 323 202 C329.6936782 185.2658045 325.07682794 154.55846912 318.44140625 138.14453125 C317.96574219 137.10683594 317.49007812 136.06914062 317 135 C316.608125 133.535625 316.21625 132.07125 315.8125 130.5625 C310.0186019 112.78122651 299.97478761 97.29353239 287 84 C286.29359375 83.22011719 285.5871875 82.44023438 284.859375 81.63671875 C258.72140699 53.55336762 213.38300641 40.85322942 176.1015625 39.0859375 C156.99215194 38.68554985 138.43321103 39.1201686 119.5 41.8125 Z M324 59 C320.81693007 63.24409324 320.26221229 64.84315832 320 70 C320.73082802 74.70978056 321.52828432 76.54793914 325 79.875 C330.87415442 84.03585938 335.64164757 83.37733639 342.6875 82.25 C346.87492896 81.03625248 349.00069111 80.09019704 352 77 C354.40433472 72.19133057 354.43213366 69.32964843 354 64 C351.76410543 59.68791761 349.94103188 57.95577391 346 55 C337.93890932 53.80216725 331.09413059 54.8808274 324 59 Z M382.5625 61.0625 C380.18904665 65.52459229 380.50957936 69.034491 381 74 C383.44109224 78.97259531 385.08811743 80.05287046 390 83 C392.64814466 83.55543712 395.32017866 84.00118434 398 84.375 C410.86293469 86.36357412 424.1029922 88.55281656 436 94 C441.13298468 95.83320881 444.67067145 96.2829865 450 95 C455.13148225 92.34871379 455.13148225 92.34871379 458 88 C459.13900893 82.48018752 459.14304891 80.35762227 457 75 C446.99044985 64.91452406 431.58298643 62.45395751 418 60 C416.06125 59.64808594 414.1225 59.29617187 412.125 58.93359375 C396.57595959 55.20125873 396.57595959 55.20125873 382.5625 61.0625 Z M484 95 C480.03185869 98.96814131 480.0365092 100.27894327 479.75 105.9375 C479.53423527 111.15649654 479.53423527 111.15649654 483 115 C483.66 115 484.32 115 485 115 C485 115.66 485 116.32 485 117 C486.7239455 118.25459908 488.50767995 119.42732093 490.3125 120.5625 C498.50391115 125.89173573 505.82852671 132.01032292 513.0625 138.5625 C516.37995838 142.21921922 516.37995838 142.21921922 519 142 C519 142.66 519 143.32 519 144 C527.49926097 151.11225015 527.49926097 151.11225015 538 152 C542.91915479 149.32338083 542.91915479 149.32338083 546 146 C547.00892729 139.94643625 547.30513605 136.76284014 545 131 C541.4037003 126.42289129 537.66172792 122.49629594 533 119 C532.34 119 531.68 119 531 119 C531 118.34 531 117.68 531 117 C509.78271454 96.35710562 509.78271454 96.35710562 484 95 Z M173 135 C160.40623538 146.942363 150.29828574 160.78873973 142 176 C140.66097398 178.19680061 139.30813847 180.38528302 137.9375 182.5625 C131.09728078 193.47151824 131.09728078 193.47151824 129 206 C131.3158969 211.52252338 132.73314148 212.83988489 138 216 C142.470727 217.26530009 144.55251698 217.168694 148.9375 215.515625 C153.83274091 212.48434121 155.21133687 209.96163775 157.6875 204.8125 C158.39261719 203.37519531 159.09773438 201.93789062 159.82421875 200.45703125 C160.54222656 198.98621094 161.26023438 197.51539063 162 196 C171.17706974 178.78923314 182.96780003 158.01609999 201 149 C205.91211881 148.72195554 208.2935035 149.1174014 213 151 C217.81104465 161.45157976 216.78232267 172.36142688 213 183 C210.53627859 188.442842 207.77763893 193.71208846 205 199 C203.57716163 201.83023907 202.16033639 204.66351036 200.75 207.5 C199.5 210 198.25 212.5 197 215 C196.30261719 216.39863281 195.60523438 217.79726562 194.88671875 219.23828125 C193.63536302 221.73322032 192.36074963 224.2166378 191.0625 226.6875 C188.89431088 231.22098633 187.12072589 235.80813307 185.3515625 240.5078125 C183.98249319 244.04523435 182.51092379 247.52100112 181 251 C178.59823569 256.5467856 176.3567275 262.13185037 174.21875 267.78515625 C173.40016024 269.9444491 172.56657041 272.09810972 171.71875 274.24609375 C169.20550188 280.6288245 166.98126924 287.02466165 165.01953125 293.59765625 C163.95119398 297.16287375 162.82007762 300.70470001 161.6875 304.25 C158.19222884 315.42411304 155.0974878 326.710568 152 338 C151.52046875 339.73765625 151.0409375 341.4753125 150.546875 343.265625 C147.88287815 353.11920372 145.7581926 362.94882957 144 373 C143.52309965 375.50043331 143.0438805 378.00042533 142.5625 380.5 C138.51839568 402.25302427 134.78594463 423.79175494 135 446 C139.35298245 445.12940351 143.63089139 444.13409745 147.9375 443.0625 C149.30777344 442.72347656 150.67804688 442.38445312 152.08984375 442.03515625 C155.45111451 441.14530935 158.71860558 440.14515016 162 439 C162.17015625 437.49695313 162.3403125 435.99390625 162.515625 434.4453125 C163.83548484 422.9994212 165.27848551 411.58046294 167 400.1875 C167.1537207 399.14674316 167.30744141 398.10598633 167.46582031 397.03369141 C168.26404205 391.86673431 169.24300703 386.82142339 170.53515625 381.75390625 C171.72671312 377.07347087 172.6739651 372.51142262 173.4375 367.75 C177.25744168 345.59433823 184.17004894 323.9737351 191.421875 302.7265625 C192.51587599 299.44997538 193.54281095 296.15052558 194.515625 292.8359375 C195.78190568 288.71052833 197.24932344 284.93327858 199 281 C199.95150537 278.50529685 200.88840462 276.00498582 201.8125 273.5 C206.17970257 261.81827095 210.59595653 250.3787589 216.38671875 239.31640625 C218.09076975 235.94526829 218.09076975 235.94526829 219.4765625 232.0625 C220.98858975 228.03042734 222.7451222 224.27891654 224.6875 220.4375 C225.39003906 219.04144531 226.09257812 217.64539063 226.81640625 216.20703125 C228.84465439 212.29929735 230.97517629 208.46662355 233.125 204.625 C242.46213319 187.23988415 247.34013039 167.41865595 242 148 C236.43902954 134.96443101 229.87767547 128.75589758 217.5 122.125 C199.90071656 116.46808746 186.18995805 123.94371163 173 135 Z M558.125 170 C555.05359891 174.33609566 555 177.74444753 555 183 C556.5107837 188.06556888 559.27386235 191.88578651 562.25390625 196.2109375 C566.00029664 202.1951047 568.91364614 208.65860492 572 215 C572.69738281 216.37671875 573.39476562 217.7534375 574.11328125 219.171875 C576 223 576 223 578.0625 228.1875 C580.66851712 234.93281188 580.66851712 234.93281188 585.75 239.8125 C589.52868431 241.19317311 592.00439225 241.49945097 596 241 C600.84858635 238.48246478 602.08882469 236.85195885 605 232 C606.33977744 226.56576252 605.80813767 223.35553889 603.625 218.25 C602.79162109 216.3009375 602.79162109 216.3009375 601.94140625 214.3125 C601.30074219 212.889375 600.66007813 211.46625 600 210 C599.28714844 208.411875 598.57429687 206.82375 597.83984375 205.1875 C593.75726589 196.33607905 589.42844384 188.08944573 584 180 C583.319375 178.741875 582.63875 177.48375 581.9375 176.1875 C579.12594511 171.56203874 576.3060478 167.78503755 571.0625 166 C565.93511121 166 562.34075113 167.06730356 558.125 170 Z M275 234 C270.79942502 241.32658427 267.93941468 249.10874118 265 257 C257.00438969 278.16964033 257.00438969 278.16964033 253.203125 287.140625 C247.13294299 301.56716146 241.51382052 316.20518624 236.0625 330.875 C233.11513843 338.78467541 229.96369937 346.60724703 226.8125 354.4375 C225.44421494 357.88180378 224.12116095 361.32324934 222.875 364.8125 C221.31475416 369.12918015 219.65833521 373.37129732 217.9375 377.625 C217.17759766 379.53345703 217.17759766 379.53345703 216.40234375 381.48046875 C215.2776215 384.30323964 214.14078663 387.121183 213 389.9375 C211.80176372 394.80533487 212.14522832 397.36307079 214 402 C216.60426394 405.13847192 218.13088625 406.71029542 222 408 C226.92973725 408.27387429 229.27366813 407.89053275 234 406 C238.3489784 401.79900196 239.89548024 396.52980363 241.9375 390.9375 C242.63541502 389.0529021 243.33462801 387.16878435 244.03515625 385.28515625 C244.68355469 383.54105469 245.33195312 381.79695312 246 380 C250.37393423 368.93909866 250.37393423 368.93909866 253 365 C256.75187142 363.98411788 260.45229468 363.11542898 264.25 362.3125 C287.68009728 356.98243844 313.08028526 348.70481882 331 332 C331 331.34 331 330.68 331 330 C332.32 329.34 333.64 328.68 335 328 C335.99 326.02 335.99 326.02 337 324 C337.66 324 338.32 324 339 324 C346.35745292 311.29495446 346.35745292 311.29495446 347 297 C344.70375779 289.21552563 342.18374629 281.97291048 338 275 C337.0568987 272.6853679 336.16645351 270.34898387 335.3125 268 C334.79171875 266.59621094 334.2709375 265.19242187 333.734375 263.74609375 C332.5002283 260.36886798 331.28328579 256.98533384 330.078125 253.59765625 C325.00399034 239.66345314 321.24335884 230.67730947 308 223 C294.12709776 219.53177444 284.24300275 223.21649679 275 234 Z M435.75 227.5 C431.8782283 233.03110242 432.89102621 239.21334409 432.9375 245.6875 C432.94201172 246.86634766 432.94652344 248.04519531 432.95117188 249.25976562 C432.96296715 252.17319867 432.98090273 255.08660567 433 258 C431.11772705 257.98952637 429.2354541 257.97905273 427.29614258 257.96826172 C420.31683248 257.93207858 413.33753068 257.90910551 406.3581543 257.89013672 C403.33665574 257.88007533 400.31516693 257.86642486 397.29370117 257.84912109 C392.95228674 257.82487933 388.61100098 257.81351817 384.26953125 257.8046875 C382.91728958 257.79436493 381.56504791 257.78404236 380.17182922 257.77340698 C378.28043465 257.77318039 378.28043465 257.77318039 376.35083008 257.77294922 C375.2427449 257.768508 374.13465973 257.76406677 372.99299622 257.75949097 C368.35327174 258.1323266 365.51791425 259.48208575 362.25 262.75 C359.8555359 266.20867037 359 267.82558756 359 272 C360.33905984 276.29519672 360.33905984 276.29519672 362 280 C362.66 280 363.32 280 364 280 C364 280.66 364 281.32 364 282 C369.07682902 284.53841451 372.5941738 284.24038926 378.27636719 284.22705078 C379.32058334 284.22734283 380.3647995 284.22763489 381.44065857 284.22793579 C384.89281518 284.22654224 388.34475608 284.21097962 391.796875 284.1953125 C394.19012331 284.19158247 396.58337315 284.18873545 398.97662354 284.18673706 C405.27638971 284.17909988 411.57606371 284.15945055 417.87579346 284.1373291 C424.3039017 284.11687258 430.73202484 284.10773575 437.16015625 284.09765625 C449.77347981 284.07620482 462.38672844 284.04206777 475 284 C473.92718274 287.33068381 472.84452361 290.65819844 471.7578125 293.984375 C471.15598145 295.83772461 470.55415039 297.69107422 469.93408203 299.60058594 C467.33442366 306.8581023 463.87053544 313.35776757 460 320 C459.13375 321.60875 458.2675 323.2175 457.375 324.875 C454.77541025 329.39007694 451.88909617 333.66635574 449 338 C448.505 339.485 448.505 339.485 448 341 C437.6447941 331.39890323 431.38464296 317.41260195 425 305 C424.34 305 423.68 305 423 305 C423 304.34 423 303.68 423 303 C418.19133057 300.59566528 415.32964843 300.56786634 410 301 C405.5377696 303.27168093 404.2671209 304.46575821 402 309 C401.31600555 316.85278246 402.69497917 321.53283905 406.5 328.375 C407.41136719 330.01726562 408.32273437 331.65953125 409.26171875 333.3515625 C412.62942076 339.06848888 416.15826263 344.59247657 420 350 C420.94875 351.4025 421.8975 352.805 422.875 354.25 C423.57625 355.1575 424.2775 356.065 425 357 C425.66 357 426.32 357 427 357 C427 362 427 362 423.8125 365.3125 C415.21960033 372.28755355 405.1873336 379.21388539 394 380.4375 C387.94971794 379.7757504 383.77633999 377.69175237 379.375 373.5 C371.60397193 362.04795863 367.25006511 348.74383 362.4609375 335.859375 C361.14194339 332.37497344 359.75640012 328.93414083 358.3125 325.5 C357.1678125 322.7775 357.1678125 322.7775 356 320 C351.56497942 322.21751029 351.14225432 323.05505278 349.0625 327.3125 C346.84210075 331.62900134 344.61493878 334.7040264 341 338 C341 338.66 341 339.32 341 340 C339.02 340.99 339.02 340.99 337 342 C337.52499277 346.85618312 339.04908146 351.18561086 340.76953125 355.73828125 C341.66863017 358.12160696 342.53680511 360.51666345 343.38671875 362.91796875 C349.75304664 380.64677161 359.69451571 396.18993527 377 405 C387.68448804 409.44114262 401.5822933 408.50886628 412.1875 404.375 C414.48486949 403.30523253 416.75935839 402.18399079 419 401 C419.93199219 400.50886719 420.86398437 400.01773438 421.82421875 399.51171875 C430.71844014 394.45849342 438.39674398 387.77380991 446 381 C451 383 451 383 454.8125 386.5 C466.16898856 396.89279319 483.10006359 408.21780735 499 408 C503.75804957 406.35631015 504.90110824 405.13185568 508 401 C509.05868667 396.13004133 509.4781442 393.12867197 507.515625 388.49609375 C504.41820488 384.19144933 501.55740991 382.69473373 496.8125 380.375 C495.29527344 379.61445313 493.77804687 378.85390625 492.21484375 378.0703125 C490.12849609 377.04550781 490.12849609 377.04550781 488 376 C482.34821547 372.96733513 477.21232185 369.72308704 472 366 C471.34 366 470.68 366 470 366 C470 365.34 470 364.68 470 364 C469.34 364 468.68 364 468 364 C468 363.34 468 362.68 468 362 C467.34 362 466.68 362 466 362 C468.70022027 356.97459005 471.37498926 352.39395242 475 348 C486.87724498 330.95873546 502 305.440531 502 284 C503.67449219 284.04640625 505.34898437 284.0928125 507.07421875 284.140625 C509.27862799 284.17814686 511.48305653 284.21454657 513.6875 284.25 C514.79029297 284.28351563 515.89308594 284.31703125 517.02929688 284.3515625 C523.34768007 284.45188051 523.34768007 284.45188051 529.14453125 282.234375 C532.20513565 278.54876296 533.00351156 275.96620119 533.5 271.1875 C532.91043197 265.07073173 531.50003627 263.06734047 527 259 C523.30506242 258.07626561 520.53693023 257.87892614 516.76269531 257.88647461 C514.87118744 257.88658791 514.87118744 257.88658791 512.94146729 257.88670349 C510.90536285 257.89444542 510.90536285 257.89444542 508.828125 257.90234375 C506.73908844 257.90446617 506.73908844 257.90446617 504.60784912 257.90663147 C500.15521099 257.91223355 495.70262296 257.92478644 491.25 257.9375 C488.23307364 257.94251473 485.2161465 257.94707768 482.19921875 257.95117188 C474.79945983 257.96220366 467.39973841 257.97946974 460 258 C460.03480469 256.26492188 460.06960938 254.52984375 460.10546875 252.7421875 C460.13361284 250.4531347 460.16091233 248.16407141 460.1875 245.875 C460.21263672 244.73289063 460.23777344 243.59078125 460.26367188 242.4140625 C460.41026268 234.2566666 460.41026268 234.2566666 457 227 C452.76237627 222.42992205 452.76237627 222.42992205 447.1875 221.75 C442.02938941 222.0579469 439.21002748 223.65552503 435.75 227.5 Z M115.375 237.05859375 C103.60645471 251.63378225 101.79545265 283.65637991 101 302 C103.00351611 307.49111822 104.3107094 309.48303205 109 313 C116.91010358 313.76219109 116.91010358 313.76219109 124.125 311.25 C128.38013996 306.14383205 128.64941413 301.11240345 129.4375 294.6875 C130.84213304 283.77635303 132.69292194 273.13754292 135.40625 262.47265625 C135.64811035 261.49683594 135.8899707 260.52101563 136.13916016 259.515625 C136.84212231 256.69444707 137.57274029 253.88020332 138.3046875 251.06640625 C139.06271459 245.54302912 138.49196677 242.91792117 136 238 C133.07087834 234.73612158 131.31522635 234.06895576 127 233.125 C122.15382969 232.97355718 119.19344216 234.0640714 115.375 237.05859375 Z M596 270 C591.23214164 277.9464306 592.81119437 285.81357685 593.9375 294.6875 C594.7191486 300.89815008 595.07463788 306.99772008 595.14453125 313.25 C595.16459229 314.71864502 595.18465332 316.18729004 595.20532227 317.70043945 C595.2347365 320.65456061 595.23976852 323.60904135 595.21850586 326.56323242 C595.27909434 334.96575031 595.27909434 334.96575031 598.859375 342.42578125 C603.58250873 346.29710604 606.99083591 346.36419176 613 346 C618.4612332 342.72326008 620.99470926 340.01587222 623 334 C625.54731262 299.54831274 625.54731262 299.54831274 614.875 268.5 C607.86167304 264.84087289 602.23639892 265.26033682 596 270 Z M105 337 C100.55938007 344.40103322 101.59825562 351.12083196 102.75 359.375 C104.38041158 365.40752283 105.84798835 368.64971818 111.1875 372 C116.17632952 373.30854545 119.1458189 372.66429066 124 371 C126.65619365 368.78650529 128.45969742 367.08060516 130 364 C130.54062887 354.53270837 130.3118212 345.6236424 126 337 C118.69307372 331.73901308 112.02417872 330.95593924 105 337 Z M592 374 C592 374.66 592 375.32 592 376 C590.02 376.99 590.02 376.99 588 378 C586.58610386 380.79734162 586.58610386 380.79734162 585.5625 384.1875 C585.14226563 385.44433594 584.72203125 386.70117188 584.2890625 387.99609375 C583.86367188 389.31738281 583.43828125 390.63867188 583 392 C582.14810445 394.58408316 581.29397734 397.16743183 580.4375 399.75 C580.02540283 400.99281738 579.61330566 402.23563477 579.1887207 403.51611328 C576.74452676 410.67952415 573.87923036 417.45575581 570.3125 424.125 C566.99101189 430.71797532 564.91215676 435.50745064 567.1875 442.8125 C568.92301385 446.35772993 568.92301385 446.35772993 573 449 C579.26856457 450.27188267 583.502195 450.44960314 589 447 C591.27226858 443.90123102 591.27226858 443.90123102 593 440 C593.825 438.370625 594.65 436.74125 595.5 435.0625 C596.325 433.391875 597.15 431.72125 598 430 C598.9590625 428.205625 598.9590625 428.205625 599.9375 426.375 C604.53885745 416.61454481 608.07626531 406.37925814 611 396 C611.61875 394.2365625 611.61875 394.2365625 612.25 392.4375 C613.23688623 387.91427146 612.95613301 384.52569626 612 380 C609.22872682 375.88053987 607.46412737 374.23206369 603 372 C597.03094922 371.62860932 597.03094922 371.62860932 592 374 Z M154 467 C152.411875 467.37125 150.82375 467.7425 149.1875 468.125 C137.27511696 472.43068062 126.80256086 478.8966322 118 488 C117.28328125 488.73089844 116.5665625 489.46179688 115.828125 490.21484375 C107.63639086 498.97630376 102.80893229 508.78021032 99 520 C98.44892578 521.60488281 98.44892578 521.60488281 97.88671875 523.2421875 C94.5746366 537.27841231 96.53955627 551.8426542 102 565 C102.4228125 566.06476563 102.845625 567.12953125 103.28125 568.2265625 C109.51550392 582.25363383 122.32233409 594.27861068 136 601 C155.18684351 608.33556607 176.4502051 610.2273639 196 603 C197.85431641 602.34644531 197.85431641 602.34644531 199.74609375 601.6796875 C214.76941147 596.05170972 227.2477235 587.60057318 240 578 C240.99 577.34 241.98 576.68 243 576 C243 575.34 243 574.68 243 574 C243.66 574 244.32 574 245 574 C245 573.34 245 572.68 245 572 C246.32 571.34 247.64 570.68 249 570 C255.61496683 564.5499967 261.48027485 558.55467361 267 552 C267.99 551.01 268.98 550.02 270 549 C270 548.34 270 547.68 270 547 C271.32 546.34 272.64 545.68 274 545 C276.20450639 542.71853313 276.20450639 542.71853313 278.25 540.0625 C278.95640625 539.18722656 279.6628125 538.31195312 280.390625 537.41015625 C282.27766107 535.06719778 282.27766107 535.06719778 282 532 C280.81921875 531.44570313 279.6384375 530.89140625 278.421875 530.3203125 C276.88015625 529.59585938 275.3384375 528.87140625 273.75 528.125 C272.21859375 527.40570312 270.6871875 526.68640625 269.109375 525.9453125 C266.39237133 524.65912635 263.68869987 523.34434993 261 522 C255.00926926 523.19814615 254.33798958 524.47596262 250.625 529.125 C239.43341504 542.5877379 227.36790609 553.9832579 213 564 C212.01128906 564.69996094 211.02257812 565.39992188 210.00390625 566.12109375 C195.01581304 576.23642516 176.97308847 580.61757796 159 579 C151.21564487 577.45310892 145.24506311 574.99605049 139 570 C138.34 570 137.68 570 137 570 C136.34 568.68 135.68 567.36 135 566 C134.071875 564.8553125 134.071875 564.8553125 133.125 563.6875 C124.93909829 553.33474195 124.16704161 542.80673521 125 530 C127.61643211 519.12115071 133.12879333 509.56252428 142.1875 502.9375 C155.47464156 494.82716684 167.40203999 491.41940145 182.875 491.5625 C184.03612305 491.56934814 185.19724609 491.57619629 186.39355469 491.58325195 C203.23938262 491.88972756 219.20490481 495.16959573 235 501 C237.62295892 501.86041396 240.24797868 502.71457035 242.875 503.5625 C248.41950865 505.40875236 253.68176866 507.56880853 259 510 C260.996589 510.75903383 262.99696777 511.50813621 265 512.25 C276.30451965 516.54703963 287.13662882 521.99375364 297.921875 527.4453125 C300.19848371 528.59517324 302.48059503 529.73415397 304.765625 530.8671875 C311.33749171 534.12774685 317.86252209 537.44144516 324.3125 540.9375 C331.57549666 544.84480833 338.99561177 548.36189172 346.46484375 551.85546875 C350.22353023 553.63283213 353.92805828 555.47436371 357.625 557.375 C382.95661112 570.11401831 409.89491466 581.6820373 437 590 C439.68769531 590.85851562 439.68769531 590.85851562 442.4296875 591.734375 C486.09982754 605.55338372 534.57624942 612.99315319 580 604 C581.37542969 603.7834375 582.75085938 603.566875 584.16796875 603.34375 C597.01768483 601.24583717 616.22188831 597.94343149 625.5625 588.375 C627.53360806 583.74718107 627.38758195 579.97396842 627 575 C626.34 574.01 625.68 573.02 625 572 C624.34 572 623.68 572 623 572 C622.34 570.68 621.68 569.36 621 568 C614.43815054 565.81271685 609.74695899 567.37336508 603.43359375 569.7890625 C558.97127166 585.46974492 501.26846212 583.22258654 457.0859375 567.11328125 C453.75798266 565.91268995 450.40640575 564.95423744 447 564 C444.3513705 563.19666192 441.70560479 562.38383266 439.0625 561.5625 C437.73347656 561.15128906 436.40445312 560.74007812 435.03515625 560.31640625 C426.13858563 557.41404004 417.5239586 553.80924222 408.875 550.25 C407.64523437 549.74984375 406.41546875 549.2496875 405.1484375 548.734375 C397.64492271 545.64469244 390.37525514 542.26622865 383.14550781 538.58251953 C379.15804933 536.57641072 375.08775822 534.7915935 371 533 C367.02770565 531.15404308 363.07496478 529.26820006 359.125 527.375 C357.47951172 526.58657715 357.47951172 526.58657715 355.80078125 525.78222656 C347.56949836 521.81271674 339.48274843 517.61023935 331.421875 513.3046875 C325.72369973 510.3347905 319.9140744 507.64387411 314.08203125 504.94921875 C309.96014992 502.98097111 305.95116561 500.86702761 301.9375 498.6875 C297.02999209 496.03033937 292.25673086 493.88913765 287 492 C284.82846492 490.96852084 282.66255392 489.92517829 280.5 488.875 C256.18761878 477.41102004 230.41956304 469.67553035 204 465 C203.07695068 464.82581543 202.15390137 464.65163086 201.20288086 464.47216797 C195.15189518 463.58013303 189.04297529 463.77298532 182.9375 463.75 C180.92366211 463.7190625 180.92366211 463.7190625 178.86914062 463.6875 C170.1423937 463.653659 162.40238533 464.68893427 154 467 Z M532.625 479.8125 C527.66756074 485.2574721 522.58049007 490.1980508 517 495 C515.68515625 496.31677734 515.68515625 496.31677734 514.34375 497.66015625 C511.86419778 500.13557589 509.25100803 502.26992204 506.5 504.4375 C498.63422946 510.49423956 498.63422946 510.49423956 495.4375 519.5 C496.03812713 524.30501702 496.82922207 526.40073856 500 530 C505.36898828 533.22139297 506.9573886 533.71089546 513 533 C517.91309167 530.64221364 517.91309167 530.64221364 522 528 C522 527.34 522 526.68 522 526 C523.65 525.34 525.3 524.68 527 524 C527 523.34 527 522.68 527 522 C527.66 522 528.32 522 529 522 C529 521.34 529 520.68 529 520 C530.32 519.34 531.64 518.68 533 518 C535.46118995 515.88404484 537.87329731 513.71043131 540.25 511.5 C541.51328125 510.3346875 542.7765625 509.169375 544.078125 507.96875 C547.23381924 505.45666844 547.23381924 505.45666844 547 503 C548.32 502.34 549.64 501.68 551 501 C552.60824139 499.24630333 554.14520352 497.42585577 555.625 495.5625 C556.40101563 494.59441406 557.17703125 493.62632812 557.9765625 492.62890625 C561.77406814 487.69508136 562.67849291 484.3984398 562.5703125 478.03125 C562.15713264 474.49503695 562.15713264 474.49503695 558.5 470.75 C546.88384885 463.65124096 540.51567265 471.13276008 532.625 479.8125 Z" fill="#FFFFFF" transform="translate(0,0)"/>
    <path d="M0 0 C3 1 3 1 4.39453125 3.59765625 C4.86246094 4.74105469 5.33039063 5.88445312 5.8125 7.0625 C6.33714844 8.34125 6.86179687 9.62 7.40234375 10.9375 C9.44157941 16.1228425 11.41928774 21.32712089 13.34765625 26.5546875 C15.95019434 33.5563148 18.66464033 40.51540504 21.36328125 47.48046875 C23 52 23 52 24 57 C11.80902219 73.43131792 -9.55486555 82.42183947 -29 87 C-30.32 87 -31.64 87 -33 87 C-32.43090989 81.45137146 -30.2890083 77.049283 -28 72 C-27.566875 70.68 -27.13375 69.36 -26.6875 68 C-25.1890682 63.56020208 -23.49763151 59.31891027 -21.6875 55 C-18.65159686 47.72022385 -15.97788445 40.36811399 -13.39453125 32.91796875 C-11.86115253 28.60990472 -10.16370575 24.40674287 -8.3671875 20.203125 C-6.60207862 16.06772704 -4.89636774 11.90893112 -3.1875 7.75 C-2.58292969 6.28046875 -1.97835938 4.8109375 -1.35546875 3.296875 C-0.68451172 1.66492188 -0.68451172 1.66492188 0 0 Z " fill="#0B0D12" transform="translate(297,248)"/>
  </g>
</svg>
